<svg xmlns="http://www.w3.org/2000/svg" xmlns:xlink="http://www.w3.org/1999/xlink" version="1.1" width="256" height="256" viewBox="0 0 256 256" xml:space="preserve">
<g style="stroke: none; stroke-width: 0; stroke-dasharray: none; stroke-linecap: butt; stroke-linejoin: miter; stroke-miterlimit: 10; fill: none; fill-rule: nonzero; opacity: 1;" transform="translate(1.4065934065934016 1.4065934065934016) scale(2.81 2.81)">
	<path d="M 45 85.465 L 7.098 47.563 C 2.521 42.986 0 36.9 0 30.426 c 0 -6.473 2.521 -12.559 7.099 -17.136 c 4.577 -4.577 10.663 -7.098 17.136 -7.098 s 12.559 2.521 17.137 7.098 L 45 16.919 l 3.63 -3.629 c 4.576 -4.577 10.662 -7.098 17.136 -7.098 s 12.56 2.521 17.136 7.099 v 0 c 0 0 0 0 0 0 C 87.479 17.867 90 23.953 90 30.426 c 0 6.474 -2.521 12.56 -7.099 17.136 L 45 85.465 z M 24.234 14.192 c -4.336 0 -8.413 1.688 -11.479 4.755 C 9.689 22.013 8 26.09 8 30.426 c 0 4.336 1.689 8.414 4.755 11.479 L 45 74.15 l 32.244 -32.244 C 80.312 38.84 82 34.763 82 30.426 c 0 -4.336 -1.688 -8.413 -4.755 -11.479 v 0 c -3.066 -3.066 -7.144 -4.755 -11.479 -4.755 s -8.413 1.688 -11.479 4.755 L 45 28.233 l -9.286 -9.286 C 32.647 15.881 28.571 14.192 24.234 14.192 z" style="stroke: none; stroke-width: 1; stroke-dasharray: none; stroke-linecap: butt; stroke-linejoin: miter; stroke-miterlimit: 10; fill: rgb(0,0,0); fill-rule: nonzero; opacity: 1;" transform=" matrix(1 0 0 1 0 0) " stroke-linecap="round"/>
</g>
</svg>